Coordinates
version=1
nRows=10
nColumns=46
inDegrees=yes

Units are S.I. units (second, meters, Newtons, ...)
Angles are in degrees.

endheader
time	pelvis_tilt	pelvis_list	pelvis_rotation	pelvis_tx	pelvis_ty	pelvis_tz	bb_angle	bb_tx	bb_ty	bb_tz	hip_flexion_r	hip_adduction_r	hip_rotation_r	knee_angle_r	knee_angle_r_beta	ankle_angle_r	subtalar_angle_r	mtp_angle_r	crank_angle_r	hip_flexion_l	hip_adduction_l	hip_rotation_l	knee_angle_l	knee_angle_l_beta	ankle_angle_l	subtalar_angle_l	mtp_angle_l	crank_angle_l	lumbar_extension	lumbar_bending	lumbar_rotation	arm_flex_r	arm_add_r	arm_rot_r	elbow_flex_r	pro_sup_r	wrist_flex_r	wrist_dev_r	arm_flex_l	arm_add_l	arm_rot_l	elbow_flex_l	pro_sup_l	wrist_flex_l	wrist_dev_l
      2.50500000	    -29.51102839	     12.47854701	      8.99218961	      0.25981606	      1.02495514	     -0.16969810	      0.00000000	      0.50000000	      0.00000000	      0.25000000	     47.70461774	    -17.69440465	     -0.33932303	     34.01854428	      0.59373560	    -19.17000734	    -10.23641505	      0.00000000	      0.00000000	     79.61180754	     -5.54176757	     -4.37638466	    110.58616160	      1.93009263	      2.35927591	      9.56956801	      0.00000000	      0.00000000	    -47.23528998	     -7.21312280	      5.02445933	     30.33118423	    -32.75449511	      2.82881422	    102.94459993	     52.21632712	      0.00000000	      0.00000000	     73.30752382	     -1.03966739	     45.55028192	     55.43918387	     49.63983943	      0.00000000	      0.00000000
      2.51000000	    -29.76971667	     12.51240634	      9.22584713	      0.26012337	      1.02532358	     -0.16966009	      0.00000000	      0.50000000	      0.00000000	      0.25000000	     46.88867576	    -17.93630140	     -0.97312191	     32.85711258	      0.57346480	    -19.98920708	     -9.69025364	      0.00000000	      0.00000000	     80.68891562	     -5.23217692	     -4.30341447	    110.98098092	      1.93698352	      2.73831107	      9.46169745	      0.00000000	      0.00000000	    -47.04642254	     -7.54115471	      4.68678351	     30.08369664	    -32.82650786	      2.86214940	    102.64032236	     52.16723006	      0.00000000	      0.00000000	     73.36063376	     -0.98989621	     45.75265983	     55.46682196	     49.66207620	      0.00000000	      0.00000000
      2.51500000	    -29.82816805	     12.31337814	      9.56042168	      0.26066273	      1.02628051	     -0.16975569	      0.00000000	      0.50000000	      0.00000000	      0.25000000	     45.69763475	    -18.07385385	     -2.07499336	     31.53183485	      0.55033434	    -21.15422278	     -9.43839955	      0.00000000	      0.00000000	     81.58862552	     -4.84348765	     -3.97214294	    111.31047346	      1.94273425	      3.03715683	      9.19212637	      0.00000000	      0.00000000	    -47.00642378	     -7.52601404	      4.41046697	     29.99525929	    -32.87321640	      2.90688622	    101.79906405	     52.01968565	      0.00000000	      0.00000000	     73.40583881	     -1.04001487	     46.21769375	     55.50939454	     49.70658507	      0.00000000	      0.00000000
      2.52000000	    -30.20312031	     12.24224399	      9.79887467	      0.26080900	      1.02691466	     -0.16961650	      0.00000000	      0.50000000	      0.00000000	      0.25000000	     45.00066450	    -18.18444923	     -2.73066586	     30.36742732	      0.53001159	    -21.94611237	     -8.94270109	      0.00000000	      0.00000000	     82.72165967	     -4.54091757	     -3.85896136	    111.50209548	      1.94607869	      3.43748108	      9.00735631	      0.00000000	      0.00000000	    -46.74924283	     -7.78784366	      4.06244078	     29.86379919	    -32.82761321	      2.96731910	    101.53406610	     51.97984964	      0.00000000	      0.00000000	     73.53203727	     -1.03666419	     46.29225709	     55.56584888	     49.71908192	      0.00000000	      0.00000000
      2.52500000	    -30.42768628	     11.97300652	     10.16332970	      0.26089360	      1.02799222	     -0.16974778	      0.00000000	      0.50000000	      0.00000000	      0.25000000	     44.01682870	    -18.22167779	     -3.70678188	     29.02535164	      0.50658795	    -23.16211150	     -8.39629813	      0.00000000	      0.00000000	     83.77538121	     -4.10296696	     -3.51520655	    111.63081157	      1.94832521	      3.70093728	      8.80529386	      0.00000000	      0.00000000	    -46.59841813	     -7.66185494	      3.76089359	     29.79217906	    -32.68447568	      3.03144462	    101.03577145	     51.89920923	      0.00000000	      0.00000000	     73.52206059	     -1.13472390	     46.43089334	     55.65186857	     49.74379973	      0.00000000	      0.00000000
      2.53000000	    -30.54510060	     11.56750731	     10.48524992	      0.26133250	      1.02939381	     -0.16983141	      0.00000000	      0.50000000	      0.00000000	      0.25000000	     42.87090019	    -18.08852824	     -4.89367156	     27.62869689	      0.48221173	    -24.60863870	     -8.28878903	      0.00000000	      0.00000000	     84.65529653	     -3.71932658	     -3.04244681	    111.66754106	      1.94896626	      4.00615207	      8.59429627	      0.00000000	      0.00000000	    -46.40007860	     -7.27584590	      2.37256039	     32.28585928	    -31.21010546	      5.25563394	     98.14336237	     51.55881311	      0.00000000	      0.00000000	     72.96925252	     -3.13138634	     46.48624309	     57.51957831	     49.94981324	      0.00000000	      0.00000000
      2.53500000	    -30.82860535	     11.18604912	     10.82922359	      0.26144347	      1.03062571	     -0.16989865	      0.00000000	      0.50000000	      0.00000000	      0.25000000	     41.99945131	    -17.97846873	     -5.93841847	     26.35195767	      0.45992843	    -25.89740113	     -7.98119295	      0.00000000	      0.00000000	     85.67954496	     -3.29552015	     -2.63289628	    111.59510397	      1.94770199	      4.33505582	      8.43274964	      0.00000000	      0.00000000	    -46.24896390	     -7.07331324	      2.07742977	     32.30185272	    -30.93888003	      5.30222307	     97.79205690	     51.50244928	      0.00000000	      0.00000000	     72.92384360	     -3.30123152	     46.48703391	     57.64300608	     49.95526436	      0.00000000	      0.00000000
      2.54000000	    -31.09639765	     10.80177262	     11.08556207	      0.26141938	      1.03201094	     -0.16968990	      0.00000000	      0.50000000	      0.00000000	      0.25000000	     41.16012541	    -17.75851761	     -6.81651472	     25.07394004	      0.43762281	    -27.26064765	     -7.56432374	      0.00000000	      0.00000000	     86.62091133	     -2.98678342	     -2.23886261	    111.43405684	      1.94489119	      4.72240664	      8.30031222	      0.00000000	      0.00000000	    -46.14063604	     -6.92998969	      1.79615929	     32.45418065	    -30.60535180	      5.39019657	     97.40330065	     51.44204982	      0.00000000	      0.00000000	     72.93385939	     -3.54702583	     46.46114454	     57.89797125	     49.98476442	      0.00000000	      0.00000000
      2.54500000	    -31.42269792	     10.35085404	     11.42618433	      0.26146327	      1.03349739	     -0.16989621	      0.00000000	      0.50000000	      0.00000000	      0.25000000	     40.36656381	    -17.53844277	     -7.77505786	     23.79163086	      0.41524229	    -28.72840560	     -7.34018320	      0.00000000	      0.00000000	     87.58128409	     -2.55404199	     -1.80538598	    111.17779773	      1.94041863	      5.19468474	      8.25807957	      0.00000000	      0.00000000	    -45.87560333	     -6.45907808	      0.21016336	     34.88575443	    -28.62356359	      7.39104812	     94.65287148	     51.14720171	      0.00000000	      0.00000000	     72.21647882	     -5.85301187	     45.73144047	     60.59677052	     50.24663225	      0.00000000	      0.00000000
      2.55000000	    -31.83447166	      9.82197703	     11.83688683	      0.26138078	      1.03489888	     -0.17040496	      0.00000000	      0.50000000	      0.00000000	      0.25000000	     39.69850197	    -17.32124571	     -8.83085999	     22.56881987	      0.39390022	    -30.14195746	     -7.02778004	      0.00000000	      0.00000000	     88.58574623	     -1.99386282	     -1.34085349	    110.82612067	      1.93428070	      5.63583055	      8.00600992	      0.00000000	      0.00000000	    -45.62583738	     -6.05965877	     -0.18722231	     35.15590761	    -28.14840932	      7.38706707	     94.24658725	     51.08035040	      0.00000000	      0.00000000	     72.10870160	     -6.17201383	     45.62609338	     61.00990811	     50.28301076	      0.00000000	      0.00000000
